<svg width="256" height="256" viewBox="0 0 256 256" fill="none" xmlns="http://www.w3.org/2000/svg">
  <defs>
    <linearGradient id="bg" x1="32" y1="24" x2="220" y2="228" gradientUnits="userSpaceOnUse">
      <stop stop-color="#16162E"/>
      <stop offset="1" stop-color="#0B0B16"/>
    </linearGradient>
    <linearGradient id="ring" x1="64" y1="54" x2="192" y2="202" gradientUnits="userSpaceOnUse">
      <stop stop-color="#7C5CFC"/>
      <stop offset="1" stop-color="#A78BFA"/>
    </linearGradient>
    <linearGradient id="lens" x1="120" y1="118" x2="202" y2="204" gradientUnits="userSpaceOnUse">
      <stop stop-color="#F8FAFF"/>
      <stop offset="1" stop-color="#D8D6FF"/>
    </linearGradient>
  </defs>

  <rect x="20" y="20" width="216" height="216" rx="56" fill="url(#bg)"/>
  <rect x="20.5" y="20.5" width="215" height="215" rx="55.5" stroke="#26264B"/>

  <circle cx="104" cy="128" r="56" fill="#7C5CFC" fill-opacity="0.10" stroke="url(#ring)" stroke-width="10"/>
  <circle cx="104" cy="128" r="30" fill="#111125" stroke="#302F63" stroke-width="8"/>
  <circle cx="104" cy="128" r="10" fill="#A78BFA"/>

  <path d="M54 128H78" stroke="#A78BFA" stroke-width="10" stroke-linecap="round"/>
  <path d="M130 128H154" stroke="#A78BFA" stroke-width="10" stroke-linecap="round"/>
  <path d="M104 78V54" stroke="#A78BFA" stroke-width="10" stroke-linecap="round"/>
  <path d="M104 202V178" stroke="#A78BFA" stroke-width="10" stroke-linecap="round"/>
  <path d="M71 95L54 78" stroke="#A78BFA" stroke-width="10" stroke-linecap="round"/>
  <path d="M137 161L154 178" stroke="#A78BFA" stroke-width="10" stroke-linecap="round"/>
  <path d="M137 95L154 78" stroke="#A78BFA" stroke-width="10" stroke-linecap="round"/>
  <path d="M71 161L54 178" stroke="#A78BFA" stroke-width="10" stroke-linecap="round"/>

  <circle cx="156" cy="156" r="34" fill="#121225" stroke="url(#lens)" stroke-width="10"/>
  <path d="M180 180L210 210" stroke="url(#lens)" stroke-width="12" stroke-linecap="round"/>
  <circle cx="156" cy="156" r="10" fill="#EDEBFF"/>
</svg>
